<mxfile host="app.diagrams.net" agent="Mozilla/5.0 (Windows NT 10.0; Win64; x64) AppleWebKit/537.36 (KHTML, like Gecko) Chrome/137.0.0.0 Safari/537.36" version="27.1.4" pages="6">
  <diagram name="otomatis mode" id="4Az4jXtHjL-wg0e88tgm">
    <mxGraphModel dx="1518" dy="588" grid="1" gridSize="10" guides="1" tooltips="1" connect="1" arrows="1" fold="1" page="1" pageScale="1" pageWidth="827" pageHeight="1169" math="0" shadow="0">
      <root>
        <mxCell id="0" />
        <mxCell id="1" parent="0" />
        <mxCell id="bdNyrH1w7sQYgzbu5uR2-7" style="edgeStyle=orthogonalEdgeStyle;rounded=0;orthogonalLoop=1;jettySize=auto;html=1;exitX=0.5;exitY=1;exitDx=0;exitDy=0;exitPerimeter=0;" edge="1" parent="1" source="bdNyrH1w7sQYgzbu5uR2-1" target="bdNyrH1w7sQYgzbu5uR2-6">
          <mxGeometry relative="1" as="geometry" />
        </mxCell>
        <mxCell id="bdNyrH1w7sQYgzbu5uR2-1" value="MULAI" style="strokeWidth=2;html=1;shape=mxgraph.flowchart.start_2;whiteSpace=wrap;" vertex="1" parent="1">
          <mxGeometry x="410" y="60" width="60" height="60" as="geometry" />
        </mxCell>
        <mxCell id="bdNyrH1w7sQYgzbu5uR2-9" value="" style="edgeStyle=orthogonalEdgeStyle;rounded=0;orthogonalLoop=1;jettySize=auto;html=1;" edge="1" parent="1" source="bdNyrH1w7sQYgzbu5uR2-6" target="bdNyrH1w7sQYgzbu5uR2-8">
          <mxGeometry relative="1" as="geometry" />
        </mxCell>
        <mxCell id="bdNyrH1w7sQYgzbu5uR2-6" value="INISIALISASI RTC, ARDUINO DHT, LCD, RELAY" style="rounded=1;whiteSpace=wrap;html=1;" vertex="1" parent="1">
          <mxGeometry x="360" y="150" width="160" height="60" as="geometry" />
        </mxCell>
        <mxCell id="bdNyrH1w7sQYgzbu5uR2-11" value="" style="edgeStyle=orthogonalEdgeStyle;rounded=0;orthogonalLoop=1;jettySize=auto;html=1;" edge="1" parent="1" source="bdNyrH1w7sQYgzbu5uR2-8" target="bdNyrH1w7sQYgzbu5uR2-10">
          <mxGeometry relative="1" as="geometry" />
        </mxCell>
        <mxCell id="bdNyrH1w7sQYgzbu5uR2-8" value="BACA SENSOR SUHU DAN KELEMBABAN" style="whiteSpace=wrap;html=1;rounded=1;" vertex="1" parent="1">
          <mxGeometry x="380" y="240" width="120" height="60" as="geometry" />
        </mxCell>
        <mxCell id="bdNyrH1w7sQYgzbu5uR2-13" value="" style="edgeStyle=orthogonalEdgeStyle;rounded=0;orthogonalLoop=1;jettySize=auto;html=1;" edge="1" parent="1" source="bdNyrH1w7sQYgzbu5uR2-10" target="bdNyrH1w7sQYgzbu5uR2-12">
          <mxGeometry relative="1" as="geometry" />
        </mxCell>
        <mxCell id="bdNyrH1w7sQYgzbu5uR2-10" value="BACA WAKTU RTC" style="whiteSpace=wrap;html=1;rounded=1;" vertex="1" parent="1">
          <mxGeometry x="380" y="340" width="120" height="60" as="geometry" />
        </mxCell>
        <mxCell id="bdNyrH1w7sQYgzbu5uR2-20" style="edgeStyle=orthogonalEdgeStyle;rounded=0;orthogonalLoop=1;jettySize=auto;html=1;entryX=0.5;entryY=0;entryDx=0;entryDy=0;" edge="1" parent="1" source="bdNyrH1w7sQYgzbu5uR2-12" target="bdNyrH1w7sQYgzbu5uR2-17">
          <mxGeometry relative="1" as="geometry" />
        </mxCell>
        <mxCell id="bdNyrH1w7sQYgzbu5uR2-12" value="KIRIM DATA KE ESP32" style="whiteSpace=wrap;html=1;rounded=1;" vertex="1" parent="1">
          <mxGeometry x="380" y="440" width="120" height="60" as="geometry" />
        </mxCell>
        <mxCell id="bdNyrH1w7sQYgzbu5uR2-19" style="edgeStyle=orthogonalEdgeStyle;rounded=0;orthogonalLoop=1;jettySize=auto;html=1;" edge="1" parent="1" source="bdNyrH1w7sQYgzbu5uR2-17" target="bdNyrH1w7sQYgzbu5uR2-18">
          <mxGeometry relative="1" as="geometry">
            <Array as="points">
              <mxPoint x="350" y="590" />
              <mxPoint x="350" y="590" />
            </Array>
          </mxGeometry>
        </mxCell>
        <mxCell id="bdNyrH1w7sQYgzbu5uR2-21" value="Y" style="edgeLabel;html=1;align=center;verticalAlign=middle;resizable=0;points=[];" vertex="1" connectable="0" parent="bdNyrH1w7sQYgzbu5uR2-19">
          <mxGeometry x="-0.0272" y="-1" relative="1" as="geometry">
            <mxPoint as="offset" />
          </mxGeometry>
        </mxCell>
        <mxCell id="bdNyrH1w7sQYgzbu5uR2-23" value="" style="edgeStyle=orthogonalEdgeStyle;rounded=0;orthogonalLoop=1;jettySize=auto;html=1;entryX=0.5;entryY=0;entryDx=0;entryDy=0;" edge="1" parent="1" source="bdNyrH1w7sQYgzbu5uR2-17" target="bdNyrH1w7sQYgzbu5uR2-22">
          <mxGeometry relative="1" as="geometry" />
        </mxCell>
        <mxCell id="bdNyrH1w7sQYgzbu5uR2-24" value="N" style="edgeLabel;html=1;align=center;verticalAlign=middle;resizable=0;points=[];" vertex="1" connectable="0" parent="bdNyrH1w7sQYgzbu5uR2-23">
          <mxGeometry x="-0.1614" y="2" relative="1" as="geometry">
            <mxPoint as="offset" />
          </mxGeometry>
        </mxCell>
        <mxCell id="bdNyrH1w7sQYgzbu5uR2-17" value="MODE MANUAL?" style="shape=hexagon;perimeter=hexagonPerimeter2;whiteSpace=wrap;html=1;fixedSize=1;" vertex="1" parent="1">
          <mxGeometry x="380" y="550" width="120" height="80" as="geometry" />
        </mxCell>
        <mxCell id="MKThbBSp3G8q3JlakAKX-10" style="edgeStyle=orthogonalEdgeStyle;rounded=0;orthogonalLoop=1;jettySize=auto;html=1;exitX=0.5;exitY=1;exitDx=0;exitDy=0;entryX=0;entryY=0.5;entryDx=0;entryDy=0;" edge="1" parent="1" source="bdNyrH1w7sQYgzbu5uR2-18" target="MKThbBSp3G8q3JlakAKX-8">
          <mxGeometry relative="1" as="geometry" />
        </mxCell>
        <mxCell id="bdNyrH1w7sQYgzbu5uR2-18" value="GUNAKAN MANUAL manualFanState" style="rounded=1;whiteSpace=wrap;html=1;" vertex="1" parent="1">
          <mxGeometry x="190" y="560" width="120" height="60" as="geometry" />
        </mxCell>
        <mxCell id="bdNyrH1w7sQYgzbu5uR2-27" style="edgeStyle=orthogonalEdgeStyle;rounded=0;orthogonalLoop=1;jettySize=auto;html=1;exitX=0;exitY=0.5;exitDx=0;exitDy=0;entryX=0.5;entryY=0;entryDx=0;entryDy=0;" edge="1" parent="1" source="bdNyrH1w7sQYgzbu5uR2-22" target="bdNyrH1w7sQYgzbu5uR2-26">
          <mxGeometry relative="1" as="geometry" />
        </mxCell>
        <mxCell id="bdNyrH1w7sQYgzbu5uR2-33" value="Y" style="edgeLabel;html=1;align=center;verticalAlign=middle;resizable=0;points=[];" vertex="1" connectable="0" parent="bdNyrH1w7sQYgzbu5uR2-27">
          <mxGeometry x="-0.3231" y="-1" relative="1" as="geometry">
            <mxPoint as="offset" />
          </mxGeometry>
        </mxCell>
        <mxCell id="bdNyrH1w7sQYgzbu5uR2-29" style="edgeStyle=orthogonalEdgeStyle;rounded=0;orthogonalLoop=1;jettySize=auto;html=1;entryX=0.5;entryY=0;entryDx=0;entryDy=0;" edge="1" parent="1" source="bdNyrH1w7sQYgzbu5uR2-22" target="bdNyrH1w7sQYgzbu5uR2-28">
          <mxGeometry relative="1" as="geometry" />
        </mxCell>
        <mxCell id="bdNyrH1w7sQYgzbu5uR2-32" value="N" style="edgeLabel;html=1;align=center;verticalAlign=middle;resizable=0;points=[];" vertex="1" connectable="0" parent="bdNyrH1w7sQYgzbu5uR2-29">
          <mxGeometry x="-0.227" y="1" relative="1" as="geometry">
            <mxPoint as="offset" />
          </mxGeometry>
        </mxCell>
        <mxCell id="bdNyrH1w7sQYgzbu5uR2-22" value="WAKTU DALAM JADWAL?" style="shape=hexagon;perimeter=hexagonPerimeter2;whiteSpace=wrap;html=1;fixedSize=1;" vertex="1" parent="1">
          <mxGeometry x="570" y="610" width="120" height="80" as="geometry" />
        </mxCell>
        <mxCell id="bdNyrH1w7sQYgzbu5uR2-30" style="edgeStyle=orthogonalEdgeStyle;rounded=0;orthogonalLoop=1;jettySize=auto;html=1;" edge="1" parent="1" source="bdNyrH1w7sQYgzbu5uR2-26" target="bdNyrH1w7sQYgzbu5uR2-28">
          <mxGeometry relative="1" as="geometry" />
        </mxCell>
        <mxCell id="bdNyrH1w7sQYgzbu5uR2-31" value="N" style="edgeLabel;html=1;align=center;verticalAlign=middle;resizable=0;points=[];" vertex="1" connectable="0" parent="bdNyrH1w7sQYgzbu5uR2-30">
          <mxGeometry x="-0.0984" y="-1" relative="1" as="geometry">
            <mxPoint as="offset" />
          </mxGeometry>
        </mxCell>
        <mxCell id="bdNyrH1w7sQYgzbu5uR2-35" style="edgeStyle=orthogonalEdgeStyle;rounded=0;orthogonalLoop=1;jettySize=auto;html=1;exitX=0;exitY=0.5;exitDx=0;exitDy=0;" edge="1" parent="1" source="bdNyrH1w7sQYgzbu5uR2-26" target="bdNyrH1w7sQYgzbu5uR2-34">
          <mxGeometry relative="1" as="geometry" />
        </mxCell>
        <mxCell id="MghBQiukC9yT5qFQiXLP-1" value="Y" style="edgeLabel;html=1;align=center;verticalAlign=middle;resizable=0;points=[];" vertex="1" connectable="0" parent="bdNyrH1w7sQYgzbu5uR2-35">
          <mxGeometry x="-0.039" y="-1" relative="1" as="geometry">
            <mxPoint as="offset" />
          </mxGeometry>
        </mxCell>
        <mxCell id="bdNyrH1w7sQYgzbu5uR2-26" value="&lt;font style=&quot;font-size: 8px;&quot;&gt;SUHU &amp;gt; THRESHOLD &amp;amp;&lt;/font&gt;&lt;div&gt;&lt;font style=&quot;font-size: 9px;&quot;&gt;KELEMBABAN &amp;gt; THRESHOLD&lt;/font&gt;&lt;/div&gt;" style="shape=hexagon;perimeter=hexagonPerimeter2;whiteSpace=wrap;html=1;fixedSize=1;" vertex="1" parent="1">
          <mxGeometry x="450" y="700" width="120" height="80" as="geometry" />
        </mxCell>
        <mxCell id="MKThbBSp3G8q3JlakAKX-6" style="edgeStyle=orthogonalEdgeStyle;rounded=0;orthogonalLoop=1;jettySize=auto;html=1;exitX=0.5;exitY=1;exitDx=0;exitDy=0;entryX=1;entryY=0.5;entryDx=0;entryDy=0;" edge="1" parent="1" source="bdNyrH1w7sQYgzbu5uR2-28" target="MKThbBSp3G8q3JlakAKX-4">
          <mxGeometry relative="1" as="geometry" />
        </mxCell>
        <mxCell id="bdNyrH1w7sQYgzbu5uR2-28" value="MATIKAN RELAY" style="rounded=1;whiteSpace=wrap;html=1;" vertex="1" parent="1">
          <mxGeometry x="720" y="710" width="120" height="60" as="geometry" />
        </mxCell>
        <mxCell id="MKThbBSp3G8q3JlakAKX-5" style="edgeStyle=orthogonalEdgeStyle;rounded=0;orthogonalLoop=1;jettySize=auto;html=1;exitX=0.5;exitY=1;exitDx=0;exitDy=0;entryX=0;entryY=0.5;entryDx=0;entryDy=0;" edge="1" parent="1" source="bdNyrH1w7sQYgzbu5uR2-34" target="MKThbBSp3G8q3JlakAKX-4">
          <mxGeometry relative="1" as="geometry" />
        </mxCell>
        <mxCell id="bdNyrH1w7sQYgzbu5uR2-34" value="NYALAKAN RELAY" style="rounded=1;whiteSpace=wrap;html=1;" vertex="1" parent="1">
          <mxGeometry x="280" y="710" width="120" height="60" as="geometry" />
        </mxCell>
        <mxCell id="bdNyrH1w7sQYgzbu5uR2-40" value="" style="edgeStyle=orthogonalEdgeStyle;rounded=0;orthogonalLoop=1;jettySize=auto;html=1;" edge="1" parent="1" source="bdNyrH1w7sQYgzbu5uR2-36" target="bdNyrH1w7sQYgzbu5uR2-39">
          <mxGeometry relative="1" as="geometry" />
        </mxCell>
        <mxCell id="bdNyrH1w7sQYgzbu5uR2-36" value="UPDATE RELAY" style="rounded=1;whiteSpace=wrap;html=1;" vertex="1" parent="1">
          <mxGeometry x="530" y="1060" width="120" height="60" as="geometry" />
        </mxCell>
        <mxCell id="bdNyrH1w7sQYgzbu5uR2-43" value="" style="edgeStyle=orthogonalEdgeStyle;rounded=0;orthogonalLoop=1;jettySize=auto;html=1;" edge="1" parent="1" source="bdNyrH1w7sQYgzbu5uR2-39" target="bdNyrH1w7sQYgzbu5uR2-42">
          <mxGeometry relative="1" as="geometry" />
        </mxCell>
        <mxCell id="bdNyrH1w7sQYgzbu5uR2-39" value="UPDATE LCD" style="whiteSpace=wrap;html=1;rounded=1;" vertex="1" parent="1">
          <mxGeometry x="530" y="1150" width="120" height="60" as="geometry" />
        </mxCell>
        <mxCell id="bdNyrH1w7sQYgzbu5uR2-45" value="" style="edgeStyle=orthogonalEdgeStyle;rounded=0;orthogonalLoop=1;jettySize=auto;html=1;" edge="1" parent="1" source="bdNyrH1w7sQYgzbu5uR2-42" target="bdNyrH1w7sQYgzbu5uR2-44">
          <mxGeometry relative="1" as="geometry" />
        </mxCell>
        <mxCell id="bdNyrH1w7sQYgzbu5uR2-42" value="KIRIM DATA KE ESP32" style="whiteSpace=wrap;html=1;rounded=1;" vertex="1" parent="1">
          <mxGeometry x="530" y="1240" width="120" height="66" as="geometry" />
        </mxCell>
        <mxCell id="bdNyrH1w7sQYgzbu5uR2-52" value="" style="edgeStyle=orthogonalEdgeStyle;rounded=0;orthogonalLoop=1;jettySize=auto;html=1;" edge="1" parent="1" source="bdNyrH1w7sQYgzbu5uR2-44" target="bdNyrH1w7sQYgzbu5uR2-51">
          <mxGeometry relative="1" as="geometry" />
        </mxCell>
        <mxCell id="bdNyrH1w7sQYgzbu5uR2-44" value="ESP32 KIRIM DATA KE BLYNK" style="whiteSpace=wrap;html=1;rounded=1;" vertex="1" parent="1">
          <mxGeometry x="530" y="1330" width="120" height="60" as="geometry" />
        </mxCell>
        <mxCell id="bdNyrH1w7sQYgzbu5uR2-53" style="edgeStyle=orthogonalEdgeStyle;rounded=0;orthogonalLoop=1;jettySize=auto;html=1;exitX=0;exitY=0.75;exitDx=0;exitDy=0;entryX=0;entryY=0.5;entryDx=0;entryDy=0;" edge="1" parent="1" source="bdNyrH1w7sQYgzbu5uR2-51" target="bdNyrH1w7sQYgzbu5uR2-8">
          <mxGeometry relative="1" as="geometry">
            <Array as="points">
              <mxPoint x="530" y="1470" />
              <mxPoint x="160" y="1470" />
              <mxPoint x="160" y="270" />
            </Array>
          </mxGeometry>
        </mxCell>
        <mxCell id="bdNyrH1w7sQYgzbu5uR2-51" value="DELAY 2 DETIK" style="whiteSpace=wrap;html=1;rounded=1;" vertex="1" parent="1">
          <mxGeometry x="530" y="1430" width="120" height="60" as="geometry" />
        </mxCell>
        <mxCell id="MKThbBSp3G8q3JlakAKX-9" style="edgeStyle=orthogonalEdgeStyle;rounded=0;orthogonalLoop=1;jettySize=auto;html=1;exitX=0.5;exitY=1;exitDx=0;exitDy=0;entryX=0.5;entryY=0;entryDx=0;entryDy=0;" edge="1" parent="1" source="MKThbBSp3G8q3JlakAKX-4" target="MKThbBSp3G8q3JlakAKX-8">
          <mxGeometry relative="1" as="geometry" />
        </mxCell>
        <mxCell id="MKThbBSp3G8q3JlakAKX-4" value="" style="rhombus;whiteSpace=wrap;html=1;" vertex="1" parent="1">
          <mxGeometry x="550" y="800" width="80" height="80" as="geometry" />
        </mxCell>
        <mxCell id="MKThbBSp3G8q3JlakAKX-11" style="edgeStyle=orthogonalEdgeStyle;rounded=0;orthogonalLoop=1;jettySize=auto;html=1;exitX=0.5;exitY=1;exitDx=0;exitDy=0;" edge="1" parent="1" source="MKThbBSp3G8q3JlakAKX-8" target="bdNyrH1w7sQYgzbu5uR2-36">
          <mxGeometry relative="1" as="geometry" />
        </mxCell>
        <mxCell id="MKThbBSp3G8q3JlakAKX-8" value="" style="rhombus;whiteSpace=wrap;html=1;" vertex="1" parent="1">
          <mxGeometry x="550" y="920" width="80" height="80" as="geometry" />
        </mxCell>
      </root>
    </mxGraphModel>
  </diagram>
  <diagram id="7hddB3MelWaFtS3QmJ7T" name="manual mode">
    <mxGraphModel dx="2468" dy="955" grid="1" gridSize="10" guides="1" tooltips="1" connect="1" arrows="1" fold="1" page="1" pageScale="1" pageWidth="827" pageHeight="1169" math="0" shadow="0">
      <root>
        <mxCell id="0" />
        <mxCell id="1" parent="0" />
        <mxCell id="-S4S8vP2KM_I7SJIOexl-1" style="edgeStyle=orthogonalEdgeStyle;rounded=0;orthogonalLoop=1;jettySize=auto;html=1;exitX=0.5;exitY=1;exitDx=0;exitDy=0;exitPerimeter=0;" edge="1" parent="1" source="-S4S8vP2KM_I7SJIOexl-2" target="-S4S8vP2KM_I7SJIOexl-4">
          <mxGeometry relative="1" as="geometry" />
        </mxCell>
        <mxCell id="-S4S8vP2KM_I7SJIOexl-2" value="MULAI" style="strokeWidth=2;html=1;shape=mxgraph.flowchart.start_2;whiteSpace=wrap;" vertex="1" parent="1">
          <mxGeometry x="1020" y="280" width="60" height="60" as="geometry" />
        </mxCell>
        <mxCell id="-S4S8vP2KM_I7SJIOexl-3" value="" style="edgeStyle=orthogonalEdgeStyle;rounded=0;orthogonalLoop=1;jettySize=auto;html=1;" edge="1" parent="1" source="-S4S8vP2KM_I7SJIOexl-4" target="-S4S8vP2KM_I7SJIOexl-6">
          <mxGeometry relative="1" as="geometry" />
        </mxCell>
        <mxCell id="-S4S8vP2KM_I7SJIOexl-4" value="INISIALISASI RTC, ARDUINO DHT, LCD, RELAY" style="rounded=1;whiteSpace=wrap;html=1;" vertex="1" parent="1">
          <mxGeometry x="970" y="370" width="160" height="60" as="geometry" />
        </mxCell>
        <mxCell id="-S4S8vP2KM_I7SJIOexl-5" value="" style="edgeStyle=orthogonalEdgeStyle;rounded=0;orthogonalLoop=1;jettySize=auto;html=1;" edge="1" parent="1" source="-S4S8vP2KM_I7SJIOexl-6" target="-S4S8vP2KM_I7SJIOexl-8">
          <mxGeometry relative="1" as="geometry" />
        </mxCell>
        <mxCell id="-S4S8vP2KM_I7SJIOexl-6" value="BACA SENSOR SUHU DAN KELEMBABAN" style="whiteSpace=wrap;html=1;rounded=1;" vertex="1" parent="1">
          <mxGeometry x="990" y="460" width="120" height="60" as="geometry" />
        </mxCell>
        <mxCell id="-S4S8vP2KM_I7SJIOexl-7" value="" style="edgeStyle=orthogonalEdgeStyle;rounded=0;orthogonalLoop=1;jettySize=auto;html=1;" edge="1" parent="1" source="-S4S8vP2KM_I7SJIOexl-8" target="-S4S8vP2KM_I7SJIOexl-10">
          <mxGeometry relative="1" as="geometry" />
        </mxCell>
        <mxCell id="-S4S8vP2KM_I7SJIOexl-8" value="BACA WAKTU RTC" style="whiteSpace=wrap;html=1;rounded=1;" vertex="1" parent="1">
          <mxGeometry x="990" y="560" width="120" height="60" as="geometry" />
        </mxCell>
        <mxCell id="-S4S8vP2KM_I7SJIOexl-9" style="edgeStyle=orthogonalEdgeStyle;rounded=0;orthogonalLoop=1;jettySize=auto;html=1;entryX=0.5;entryY=0;entryDx=0;entryDy=0;" edge="1" parent="1" source="-S4S8vP2KM_I7SJIOexl-10" target="-S4S8vP2KM_I7SJIOexl-15">
          <mxGeometry relative="1" as="geometry" />
        </mxCell>
        <mxCell id="-S4S8vP2KM_I7SJIOexl-10" value="KIRIM DATA KE ESP32" style="whiteSpace=wrap;html=1;rounded=1;" vertex="1" parent="1">
          <mxGeometry x="990" y="660" width="120" height="60" as="geometry" />
        </mxCell>
        <mxCell id="-S4S8vP2KM_I7SJIOexl-11" style="edgeStyle=orthogonalEdgeStyle;rounded=0;orthogonalLoop=1;jettySize=auto;html=1;exitX=0;exitY=0.5;exitDx=0;exitDy=0;entryX=1;entryY=0.5;entryDx=0;entryDy=0;" edge="1" parent="1" source="-S4S8vP2KM_I7SJIOexl-15" target="-S4S8vP2KM_I7SJIOexl-17">
          <mxGeometry relative="1" as="geometry">
            <Array as="points">
              <mxPoint x="960" y="795" />
              <mxPoint x="960" y="795" />
            </Array>
          </mxGeometry>
        </mxCell>
        <mxCell id="-S4S8vP2KM_I7SJIOexl-12" value="Y" style="edgeLabel;html=1;align=center;verticalAlign=middle;resizable=0;points=[];" vertex="1" connectable="0" parent="-S4S8vP2KM_I7SJIOexl-11">
          <mxGeometry x="-0.0272" y="-1" relative="1" as="geometry">
            <mxPoint as="offset" />
          </mxGeometry>
        </mxCell>
        <mxCell id="-S4S8vP2KM_I7SJIOexl-46" style="edgeStyle=orthogonalEdgeStyle;rounded=0;orthogonalLoop=1;jettySize=auto;html=1;exitX=1;exitY=0.5;exitDx=0;exitDy=0;entryX=0;entryY=0.5;entryDx=0;entryDy=0;" edge="1" parent="1" source="-S4S8vP2KM_I7SJIOexl-15" target="-S4S8vP2KM_I7SJIOexl-45">
          <mxGeometry relative="1" as="geometry" />
        </mxCell>
        <mxCell id="Xe4z1hUHcEtr2YWVmqlI-9" value="N" style="edgeLabel;html=1;align=center;verticalAlign=middle;resizable=0;points=[];" vertex="1" connectable="0" parent="-S4S8vP2KM_I7SJIOexl-46">
          <mxGeometry x="-0.2861" y="-2" relative="1" as="geometry">
            <mxPoint as="offset" />
          </mxGeometry>
        </mxCell>
        <mxCell id="-S4S8vP2KM_I7SJIOexl-15" value="MODE MANUAL?" style="shape=hexagon;perimeter=hexagonPerimeter2;whiteSpace=wrap;html=1;fixedSize=1;" vertex="1" parent="1">
          <mxGeometry x="990" y="770" width="120" height="50" as="geometry" />
        </mxCell>
        <mxCell id="-S4S8vP2KM_I7SJIOexl-49" style="edgeStyle=orthogonalEdgeStyle;rounded=0;orthogonalLoop=1;jettySize=auto;html=1;exitX=0.5;exitY=1;exitDx=0;exitDy=0;entryX=0.5;entryY=0;entryDx=0;entryDy=0;" edge="1" parent="1" source="-S4S8vP2KM_I7SJIOexl-17" target="-S4S8vP2KM_I7SJIOexl-50">
          <mxGeometry relative="1" as="geometry">
            <mxPoint x="860" y="880" as="targetPoint" />
          </mxGeometry>
        </mxCell>
        <mxCell id="-S4S8vP2KM_I7SJIOexl-17" value="GUNAKAN MANUAL manualFanState" style="rounded=1;whiteSpace=wrap;html=1;" vertex="1" parent="1">
          <mxGeometry x="800" y="765" width="120" height="60" as="geometry" />
        </mxCell>
        <mxCell id="-S4S8vP2KM_I7SJIOexl-18" style="edgeStyle=orthogonalEdgeStyle;rounded=0;orthogonalLoop=1;jettySize=auto;html=1;exitX=0;exitY=0.5;exitDx=0;exitDy=0;entryX=0.5;entryY=0;entryDx=0;entryDy=0;" edge="1" parent="1" target="-S4S8vP2KM_I7SJIOexl-26">
          <mxGeometry relative="1" as="geometry">
            <mxPoint x="1180" y="870" as="sourcePoint" />
          </mxGeometry>
        </mxCell>
        <mxCell id="-S4S8vP2KM_I7SJIOexl-19" value="Y" style="edgeLabel;html=1;align=center;verticalAlign=middle;resizable=0;points=[];" vertex="1" connectable="0" parent="-S4S8vP2KM_I7SJIOexl-18">
          <mxGeometry x="-0.3231" y="-1" relative="1" as="geometry">
            <mxPoint as="offset" />
          </mxGeometry>
        </mxCell>
        <mxCell id="-S4S8vP2KM_I7SJIOexl-20" style="edgeStyle=orthogonalEdgeStyle;rounded=0;orthogonalLoop=1;jettySize=auto;html=1;entryX=0.5;entryY=0;entryDx=0;entryDy=0;" edge="1" parent="1" target="-S4S8vP2KM_I7SJIOexl-28">
          <mxGeometry relative="1" as="geometry">
            <mxPoint x="1299.9666666666667" y="870.0666666666666" as="sourcePoint" />
          </mxGeometry>
        </mxCell>
        <mxCell id="-S4S8vP2KM_I7SJIOexl-21" value="N" style="edgeLabel;html=1;align=center;verticalAlign=middle;resizable=0;points=[];" vertex="1" connectable="0" parent="-S4S8vP2KM_I7SJIOexl-20">
          <mxGeometry x="-0.227" y="1" relative="1" as="geometry">
            <mxPoint as="offset" />
          </mxGeometry>
        </mxCell>
        <mxCell id="-S4S8vP2KM_I7SJIOexl-23" style="edgeStyle=orthogonalEdgeStyle;rounded=0;orthogonalLoop=1;jettySize=auto;html=1;" edge="1" parent="1" target="-S4S8vP2KM_I7SJIOexl-28">
          <mxGeometry relative="1" as="geometry">
            <mxPoint x="1180" y="960" as="sourcePoint" />
          </mxGeometry>
        </mxCell>
        <mxCell id="-S4S8vP2KM_I7SJIOexl-24" value="N" style="edgeLabel;html=1;align=center;verticalAlign=middle;resizable=0;points=[];" vertex="1" connectable="0" parent="-S4S8vP2KM_I7SJIOexl-23">
          <mxGeometry x="-0.0984" y="-1" relative="1" as="geometry">
            <mxPoint as="offset" />
          </mxGeometry>
        </mxCell>
        <mxCell id="-S4S8vP2KM_I7SJIOexl-25" style="edgeStyle=orthogonalEdgeStyle;rounded=0;orthogonalLoop=1;jettySize=auto;html=1;exitX=0;exitY=0.5;exitDx=0;exitDy=0;" edge="1" parent="1" target="-S4S8vP2KM_I7SJIOexl-30">
          <mxGeometry relative="1" as="geometry">
            <mxPoint x="1060" y="960" as="sourcePoint" />
          </mxGeometry>
        </mxCell>
        <mxCell id="-S4S8vP2KM_I7SJIOexl-27" style="edgeStyle=orthogonalEdgeStyle;rounded=0;orthogonalLoop=1;jettySize=auto;html=1;exitX=0.5;exitY=1;exitDx=0;exitDy=0;entryX=1;entryY=0.5;entryDx=0;entryDy=0;" edge="1" parent="1" target="-S4S8vP2KM_I7SJIOexl-42">
          <mxGeometry relative="1" as="geometry">
            <mxPoint x="1390" y="990" as="sourcePoint" />
          </mxGeometry>
        </mxCell>
        <mxCell id="-S4S8vP2KM_I7SJIOexl-29" style="edgeStyle=orthogonalEdgeStyle;rounded=0;orthogonalLoop=1;jettySize=auto;html=1;exitX=0.5;exitY=1;exitDx=0;exitDy=0;entryX=0;entryY=0.5;entryDx=0;entryDy=0;" edge="1" parent="1" target="-S4S8vP2KM_I7SJIOexl-42">
          <mxGeometry relative="1" as="geometry">
            <mxPoint x="950" y="990" as="sourcePoint" />
          </mxGeometry>
        </mxCell>
        <mxCell id="-S4S8vP2KM_I7SJIOexl-31" value="" style="edgeStyle=orthogonalEdgeStyle;rounded=0;orthogonalLoop=1;jettySize=auto;html=1;" edge="1" parent="1" source="-S4S8vP2KM_I7SJIOexl-32" target="-S4S8vP2KM_I7SJIOexl-34">
          <mxGeometry relative="1" as="geometry" />
        </mxCell>
        <mxCell id="-S4S8vP2KM_I7SJIOexl-32" value="UPDATE RELAY" style="rounded=1;whiteSpace=wrap;html=1;" vertex="1" parent="1">
          <mxGeometry x="800" y="1210" width="120" height="60" as="geometry" />
        </mxCell>
        <mxCell id="-S4S8vP2KM_I7SJIOexl-33" value="" style="edgeStyle=orthogonalEdgeStyle;rounded=0;orthogonalLoop=1;jettySize=auto;html=1;" edge="1" parent="1" source="-S4S8vP2KM_I7SJIOexl-34" target="-S4S8vP2KM_I7SJIOexl-36">
          <mxGeometry relative="1" as="geometry" />
        </mxCell>
        <mxCell id="-S4S8vP2KM_I7SJIOexl-34" value="UPDATE LCD" style="whiteSpace=wrap;html=1;rounded=1;" vertex="1" parent="1">
          <mxGeometry x="800" y="1300" width="120" height="60" as="geometry" />
        </mxCell>
        <mxCell id="-S4S8vP2KM_I7SJIOexl-35" value="" style="edgeStyle=orthogonalEdgeStyle;rounded=0;orthogonalLoop=1;jettySize=auto;html=1;" edge="1" parent="1" source="-S4S8vP2KM_I7SJIOexl-36" target="-S4S8vP2KM_I7SJIOexl-38">
          <mxGeometry relative="1" as="geometry" />
        </mxCell>
        <mxCell id="-S4S8vP2KM_I7SJIOexl-36" value="KIRIM DATA KE ESP32" style="whiteSpace=wrap;html=1;rounded=1;" vertex="1" parent="1">
          <mxGeometry x="800" y="1390" width="120" height="66" as="geometry" />
        </mxCell>
        <mxCell id="-S4S8vP2KM_I7SJIOexl-37" value="" style="edgeStyle=orthogonalEdgeStyle;rounded=0;orthogonalLoop=1;jettySize=auto;html=1;" edge="1" parent="1" source="-S4S8vP2KM_I7SJIOexl-38" target="-S4S8vP2KM_I7SJIOexl-40">
          <mxGeometry relative="1" as="geometry" />
        </mxCell>
        <mxCell id="-S4S8vP2KM_I7SJIOexl-38" value="ESP32 KIRIM DATA KE BLYNK" style="whiteSpace=wrap;html=1;rounded=1;" vertex="1" parent="1">
          <mxGeometry x="800" y="1480" width="120" height="60" as="geometry" />
        </mxCell>
        <mxCell id="gclXC8FwHHKACivl6LY1-2" style="edgeStyle=orthogonalEdgeStyle;rounded=0;orthogonalLoop=1;jettySize=auto;html=1;exitX=1;exitY=0.5;exitDx=0;exitDy=0;entryX=1;entryY=0.5;entryDx=0;entryDy=0;" edge="1" parent="1" source="-S4S8vP2KM_I7SJIOexl-40" target="-S4S8vP2KM_I7SJIOexl-6">
          <mxGeometry relative="1" as="geometry">
            <Array as="points">
              <mxPoint x="1300" y="1610" />
              <mxPoint x="1300" y="490" />
            </Array>
          </mxGeometry>
        </mxCell>
        <mxCell id="-S4S8vP2KM_I7SJIOexl-40" value="DELAY 2 DETIK" style="whiteSpace=wrap;html=1;rounded=1;" vertex="1" parent="1">
          <mxGeometry x="800" y="1580" width="120" height="60" as="geometry" />
        </mxCell>
        <mxCell id="-S4S8vP2KM_I7SJIOexl-43" style="edgeStyle=orthogonalEdgeStyle;rounded=0;orthogonalLoop=1;jettySize=auto;html=1;exitX=0.5;exitY=1;exitDx=0;exitDy=0;" edge="1" parent="1" source="-S4S8vP2KM_I7SJIOexl-44" target="-S4S8vP2KM_I7SJIOexl-32">
          <mxGeometry relative="1" as="geometry">
            <Array as="points">
              <mxPoint x="1110" y="1190" />
              <mxPoint x="860" y="1190" />
            </Array>
          </mxGeometry>
        </mxCell>
        <mxCell id="-S4S8vP2KM_I7SJIOexl-44" value="" style="rhombus;whiteSpace=wrap;html=1;" vertex="1" parent="1">
          <mxGeometry x="1070" y="1100" width="80" height="80" as="geometry" />
        </mxCell>
        <mxCell id="6fsLugynjXtwVKVCvPmA-5" style="edgeStyle=orthogonalEdgeStyle;rounded=0;orthogonalLoop=1;jettySize=auto;html=1;exitX=0.5;exitY=1;exitDx=0;exitDy=0;entryX=1;entryY=0.5;entryDx=0;entryDy=0;" edge="1" parent="1" source="-S4S8vP2KM_I7SJIOexl-45" target="-S4S8vP2KM_I7SJIOexl-44">
          <mxGeometry relative="1" as="geometry" />
        </mxCell>
        <mxCell id="-S4S8vP2KM_I7SJIOexl-45" value="MODE OTOMATIS" style="rounded=1;whiteSpace=wrap;html=1;" vertex="1" parent="1">
          <mxGeometry x="1160" y="765" width="120" height="60" as="geometry" />
        </mxCell>
        <mxCell id="Xe4z1hUHcEtr2YWVmqlI-3" style="edgeStyle=orthogonalEdgeStyle;rounded=0;orthogonalLoop=1;jettySize=auto;html=1;exitX=1;exitY=0.5;exitDx=0;exitDy=0;entryX=0.5;entryY=0;entryDx=0;entryDy=0;" edge="1" parent="1" source="-S4S8vP2KM_I7SJIOexl-50" target="Xe4z1hUHcEtr2YWVmqlI-1">
          <mxGeometry relative="1" as="geometry" />
        </mxCell>
        <mxCell id="Xe4z1hUHcEtr2YWVmqlI-8" value="N" style="edgeLabel;html=1;align=center;verticalAlign=middle;resizable=0;points=[];" vertex="1" connectable="0" parent="Xe4z1hUHcEtr2YWVmqlI-3">
          <mxGeometry x="-0.3877" relative="1" as="geometry">
            <mxPoint as="offset" />
          </mxGeometry>
        </mxCell>
        <mxCell id="Xe4z1hUHcEtr2YWVmqlI-4" style="edgeStyle=orthogonalEdgeStyle;rounded=0;orthogonalLoop=1;jettySize=auto;html=1;exitX=0;exitY=0.5;exitDx=0;exitDy=0;entryX=0.5;entryY=0;entryDx=0;entryDy=0;" edge="1" parent="1" source="-S4S8vP2KM_I7SJIOexl-50" target="Xe4z1hUHcEtr2YWVmqlI-2">
          <mxGeometry relative="1" as="geometry" />
        </mxCell>
        <mxCell id="Xe4z1hUHcEtr2YWVmqlI-7" value="Y" style="edgeLabel;html=1;align=center;verticalAlign=middle;resizable=0;points=[];" vertex="1" connectable="0" parent="Xe4z1hUHcEtr2YWVmqlI-4">
          <mxGeometry x="-0.249" y="-2" relative="1" as="geometry">
            <mxPoint as="offset" />
          </mxGeometry>
        </mxCell>
        <mxCell id="-S4S8vP2KM_I7SJIOexl-50" value="manualFanState =1" style="shape=hexagon;perimeter=hexagonPerimeter2;whiteSpace=wrap;html=1;fixedSize=1;" vertex="1" parent="1">
          <mxGeometry x="800" y="860" width="120" height="40" as="geometry" />
        </mxCell>
        <mxCell id="6fsLugynjXtwVKVCvPmA-3" style="edgeStyle=orthogonalEdgeStyle;rounded=0;orthogonalLoop=1;jettySize=auto;html=1;exitX=0.5;exitY=1;exitDx=0;exitDy=0;entryX=1;entryY=0.5;entryDx=0;entryDy=0;" edge="1" parent="1" source="Xe4z1hUHcEtr2YWVmqlI-1" target="6fsLugynjXtwVKVCvPmA-1">
          <mxGeometry relative="1" as="geometry" />
        </mxCell>
        <mxCell id="Xe4z1hUHcEtr2YWVmqlI-1" value="MATIKAN RELAY" style="rounded=1;whiteSpace=wrap;html=1;" vertex="1" parent="1">
          <mxGeometry x="940" y="920" width="120" height="60" as="geometry" />
        </mxCell>
        <mxCell id="6fsLugynjXtwVKVCvPmA-2" style="edgeStyle=orthogonalEdgeStyle;rounded=0;orthogonalLoop=1;jettySize=auto;html=1;exitX=0.5;exitY=1;exitDx=0;exitDy=0;entryX=0;entryY=0.5;entryDx=0;entryDy=0;" edge="1" parent="1" source="Xe4z1hUHcEtr2YWVmqlI-2" target="6fsLugynjXtwVKVCvPmA-1">
          <mxGeometry relative="1" as="geometry" />
        </mxCell>
        <mxCell id="Xe4z1hUHcEtr2YWVmqlI-2" value="NYALAKAN RELAY" style="rounded=1;whiteSpace=wrap;html=1;" vertex="1" parent="1">
          <mxGeometry x="650" y="920" width="120" height="60" as="geometry" />
        </mxCell>
        <mxCell id="6fsLugynjXtwVKVCvPmA-4" style="edgeStyle=orthogonalEdgeStyle;rounded=0;orthogonalLoop=1;jettySize=auto;html=1;exitX=0.5;exitY=1;exitDx=0;exitDy=0;entryX=0.5;entryY=0;entryDx=0;entryDy=0;" edge="1" parent="1" source="6fsLugynjXtwVKVCvPmA-1" target="-S4S8vP2KM_I7SJIOexl-44">
          <mxGeometry relative="1" as="geometry" />
        </mxCell>
        <mxCell id="6fsLugynjXtwVKVCvPmA-1" value="" style="rhombus;whiteSpace=wrap;html=1;" vertex="1" parent="1">
          <mxGeometry x="820" y="980" width="80" height="80" as="geometry" />
        </mxCell>
      </root>
    </mxGraphModel>
  </diagram>
  <diagram id="i-cfCQEMZi60nOm-V1x0" name="Konteks Diagram">
    <mxGraphModel dx="1410" dy="546" grid="1" gridSize="10" guides="1" tooltips="1" connect="1" arrows="1" fold="1" page="1" pageScale="1" pageWidth="827" pageHeight="1169" math="0" shadow="0">
      <root>
        <mxCell id="0" />
        <mxCell id="1" parent="0" />
        <mxCell id="U7BT9etSHL-sBGbC5w2L-4" value="INPUT" style="swimlane;fontStyle=0;childLayout=stackLayout;horizontal=1;startSize=30;horizontalStack=0;resizeParent=1;resizeParentMax=0;resizeLast=0;collapsible=1;marginBottom=0;whiteSpace=wrap;html=1;" vertex="1" parent="1">
          <mxGeometry x="140" y="60" width="140" height="90" as="geometry" />
        </mxCell>
        <mxCell id="U7BT9etSHL-sBGbC5w2L-5" value="SENSOR RTC" style="text;strokeColor=none;fillColor=none;align=left;verticalAlign=middle;spacingLeft=4;spacingRight=4;overflow=hidden;points=[[0,0.5],[1,0.5]];portConstraint=eastwest;rotatable=0;whiteSpace=wrap;html=1;" vertex="1" parent="U7BT9etSHL-sBGbC5w2L-4">
          <mxGeometry y="30" width="140" height="30" as="geometry" />
        </mxCell>
        <mxCell id="U7BT9etSHL-sBGbC5w2L-6" value="SENSOR DHT11" style="text;strokeColor=none;fillColor=none;align=left;verticalAlign=middle;spacingLeft=4;spacingRight=4;overflow=hidden;points=[[0,0.5],[1,0.5]];portConstraint=eastwest;rotatable=0;whiteSpace=wrap;html=1;" vertex="1" parent="U7BT9etSHL-sBGbC5w2L-4">
          <mxGeometry y="60" width="140" height="30" as="geometry" />
        </mxCell>
        <mxCell id="U7BT9etSHL-sBGbC5w2L-12" value="PROSES" style="swimlane;fontStyle=0;childLayout=stackLayout;horizontal=1;startSize=30;horizontalStack=0;resizeParent=1;resizeParentMax=0;resizeLast=0;collapsible=1;marginBottom=0;whiteSpace=wrap;html=1;" vertex="1" parent="1">
          <mxGeometry x="360" y="40" width="140" height="120" as="geometry" />
        </mxCell>
        <mxCell id="U7BT9etSHL-sBGbC5w2L-13" value="ARDUINO UNO&lt;span style=&quot;white-space: pre;&quot;&gt;&#x9;&lt;/span&gt;" style="text;strokeColor=none;fillColor=none;align=left;verticalAlign=middle;spacingLeft=4;spacingRight=4;overflow=hidden;points=[[0,0.5],[1,0.5]];portConstraint=eastwest;rotatable=0;whiteSpace=wrap;html=1;" vertex="1" parent="U7BT9etSHL-sBGbC5w2L-12">
          <mxGeometry y="30" width="140" height="30" as="geometry" />
        </mxCell>
        <mxCell id="U7BT9etSHL-sBGbC5w2L-14" value="ESP32" style="text;strokeColor=none;fillColor=none;align=left;verticalAlign=middle;spacingLeft=4;spacingRight=4;overflow=hidden;points=[[0,0.5],[1,0.5]];portConstraint=eastwest;rotatable=0;whiteSpace=wrap;html=1;" vertex="1" parent="U7BT9etSHL-sBGbC5w2L-12">
          <mxGeometry y="60" width="140" height="30" as="geometry" />
        </mxCell>
        <mxCell id="U7BT9etSHL-sBGbC5w2L-15" value="BLYNK" style="text;strokeColor=none;fillColor=none;align=left;verticalAlign=middle;spacingLeft=4;spacingRight=4;overflow=hidden;points=[[0,0.5],[1,0.5]];portConstraint=eastwest;rotatable=0;whiteSpace=wrap;html=1;" vertex="1" parent="U7BT9etSHL-sBGbC5w2L-12">
          <mxGeometry y="90" width="140" height="30" as="geometry" />
        </mxCell>
        <mxCell id="U7BT9etSHL-sBGbC5w2L-16" value="OUTPUT" style="swimlane;fontStyle=0;childLayout=stackLayout;horizontal=1;startSize=30;horizontalStack=0;resizeParent=1;resizeParentMax=0;resizeLast=0;collapsible=1;marginBottom=0;whiteSpace=wrap;html=1;" vertex="1" parent="1">
          <mxGeometry x="570" y="60" width="140" height="90" as="geometry" />
        </mxCell>
        <mxCell id="U7BT9etSHL-sBGbC5w2L-17" value="RELAY" style="text;strokeColor=none;fillColor=none;align=left;verticalAlign=middle;spacingLeft=4;spacingRight=4;overflow=hidden;points=[[0,0.5],[1,0.5]];portConstraint=eastwest;rotatable=0;whiteSpace=wrap;html=1;" vertex="1" parent="U7BT9etSHL-sBGbC5w2L-16">
          <mxGeometry y="30" width="140" height="30" as="geometry" />
        </mxCell>
        <mxCell id="U7BT9etSHL-sBGbC5w2L-19" value="LCD" style="text;strokeColor=none;fillColor=none;align=left;verticalAlign=middle;spacingLeft=4;spacingRight=4;overflow=hidden;points=[[0,0.5],[1,0.5]];portConstraint=eastwest;rotatable=0;whiteSpace=wrap;html=1;" vertex="1" parent="U7BT9etSHL-sBGbC5w2L-16">
          <mxGeometry y="60" width="140" height="30" as="geometry" />
        </mxCell>
        <mxCell id="U7BT9etSHL-sBGbC5w2L-20" style="edgeStyle=orthogonalEdgeStyle;rounded=0;orthogonalLoop=1;jettySize=auto;html=1;exitX=1;exitY=0.5;exitDx=0;exitDy=0;" edge="1" parent="1" source="U7BT9etSHL-sBGbC5w2L-5">
          <mxGeometry relative="1" as="geometry">
            <mxPoint x="360" y="105" as="targetPoint" />
            <Array as="points">
              <mxPoint x="360" y="105" />
            </Array>
          </mxGeometry>
        </mxCell>
        <mxCell id="U7BT9etSHL-sBGbC5w2L-21" style="edgeStyle=orthogonalEdgeStyle;rounded=0;orthogonalLoop=1;jettySize=auto;html=1;" edge="1" parent="1">
          <mxGeometry relative="1" as="geometry">
            <mxPoint x="500" y="100" as="sourcePoint" />
            <mxPoint x="570" y="100" as="targetPoint" />
            <Array as="points">
              <mxPoint x="570" y="100" />
            </Array>
          </mxGeometry>
        </mxCell>
      </root>
    </mxGraphModel>
  </diagram>
  <diagram id="ShHqDVRMszKELzMTgn-K" name="Kontek Diagram Full">
    <mxGraphModel dx="1410" dy="546" grid="1" gridSize="10" guides="1" tooltips="1" connect="1" arrows="1" fold="1" page="1" pageScale="1" pageWidth="827" pageHeight="1169" math="0" shadow="0">
      <root>
        <mxCell id="0" />
        <mxCell id="1" parent="0" />
        <mxCell id="uYDMYwzP-bkC2HoixCUO-1" value="Cloud&lt;div&gt;Server&lt;/div&gt;&lt;div&gt;Blynk&lt;/div&gt;" style="shape=cylinder;whiteSpace=wrap;html=1;boundedLbl=1;backgroundOutline=1;" vertex="1" parent="1">
          <mxGeometry x="120" y="40" width="60" height="80" as="geometry" />
        </mxCell>
        <mxCell id="uYDMYwzP-bkC2HoixCUO-2" value="Internet" style="shape=cloud;whiteSpace=wrap;html=1;" vertex="1" parent="1">
          <mxGeometry x="260" y="35" width="90" height="90" as="geometry" />
        </mxCell>
        <mxCell id="uYDMYwzP-bkC2HoixCUO-3" style="edgeStyle=orthogonalEdgeStyle;rounded=0;orthogonalLoop=1;jettySize=auto;html=1;exitX=1;exitY=0.3;exitDx=0;exitDy=0;entryX=0.144;entryY=0.304;entryDx=0;entryDy=0;entryPerimeter=0;" edge="1" parent="1" source="uYDMYwzP-bkC2HoixCUO-1" target="uYDMYwzP-bkC2HoixCUO-2">
          <mxGeometry relative="1" as="geometry">
            <Array as="points">
              <mxPoint x="180" y="62" />
              <mxPoint x="220" y="62" />
            </Array>
          </mxGeometry>
        </mxCell>
        <mxCell id="uYDMYwzP-bkC2HoixCUO-4" style="edgeStyle=orthogonalEdgeStyle;rounded=0;orthogonalLoop=1;jettySize=auto;html=1;exitX=0.084;exitY=0.678;exitDx=0;exitDy=0;exitPerimeter=0;entryX=1;entryY=0.7;entryDx=0;entryDy=0;" edge="1" parent="1" source="uYDMYwzP-bkC2HoixCUO-2" target="uYDMYwzP-bkC2HoixCUO-1">
          <mxGeometry relative="1" as="geometry" />
        </mxCell>
        <mxCell id="uYDMYwzP-bkC2HoixCUO-6" value="" style="swimlane;startSize=0;" vertex="1" parent="1">
          <mxGeometry x="390" y="50" width="200" height="60" as="geometry">
            <mxRectangle x="414" y="50" width="50" height="40" as="alternateBounds" />
          </mxGeometry>
        </mxCell>
        <mxCell id="uYDMYwzP-bkC2HoixCUO-7" value="Smartphone" style="rounded=0;whiteSpace=wrap;html=1;" vertex="1" parent="uYDMYwzP-bkC2HoixCUO-6">
          <mxGeometry x="20" y="15" width="80" height="25" as="geometry" />
        </mxCell>
        <mxCell id="uYDMYwzP-bkC2HoixCUO-9" value="Blynk" style="rounded=0;whiteSpace=wrap;html=1;" vertex="1" parent="uYDMYwzP-bkC2HoixCUO-6">
          <mxGeometry x="110" y="15" width="80" height="25" as="geometry" />
        </mxCell>
        <mxCell id="uYDMYwzP-bkC2HoixCUO-10" value="" style="endArrow=none;html=1;rounded=0;exitX=1;exitY=0.5;exitDx=0;exitDy=0;entryX=0;entryY=0.5;entryDx=0;entryDy=0;" edge="1" parent="uYDMYwzP-bkC2HoixCUO-6" source="uYDMYwzP-bkC2HoixCUO-7" target="uYDMYwzP-bkC2HoixCUO-9">
          <mxGeometry width="50" height="50" relative="1" as="geometry">
            <mxPoint x="130" y="120" as="sourcePoint" />
            <mxPoint x="180" y="70" as="targetPoint" />
          </mxGeometry>
        </mxCell>
        <mxCell id="uYDMYwzP-bkC2HoixCUO-11" style="edgeStyle=orthogonalEdgeStyle;rounded=0;orthogonalLoop=1;jettySize=auto;html=1;exitX=0.88;exitY=0.25;exitDx=0;exitDy=0;exitPerimeter=0;entryX=-0.003;entryY=0.135;entryDx=0;entryDy=0;entryPerimeter=0;" edge="1" parent="1" source="uYDMYwzP-bkC2HoixCUO-2" target="uYDMYwzP-bkC2HoixCUO-6">
          <mxGeometry relative="1" as="geometry" />
        </mxCell>
        <mxCell id="uYDMYwzP-bkC2HoixCUO-12" style="edgeStyle=orthogonalEdgeStyle;rounded=0;orthogonalLoop=1;jettySize=auto;html=1;exitX=0;exitY=0.75;exitDx=0;exitDy=0;entryX=0.951;entryY=0.667;entryDx=0;entryDy=0;entryPerimeter=0;" edge="1" parent="1" source="uYDMYwzP-bkC2HoixCUO-6" target="uYDMYwzP-bkC2HoixCUO-2">
          <mxGeometry relative="1" as="geometry" />
        </mxCell>
        <mxCell id="uYDMYwzP-bkC2HoixCUO-13" value="Wifi" style="rounded=0;whiteSpace=wrap;html=1;" vertex="1" parent="1">
          <mxGeometry x="260" y="140" width="100" height="40" as="geometry" />
        </mxCell>
        <mxCell id="jPYijmle_x3Z0nmRtkAs-1" value="Input" style="swimlane;whiteSpace=wrap;html=1;" vertex="1" parent="1">
          <mxGeometry x="50" y="200" width="130" height="160" as="geometry" />
        </mxCell>
        <mxCell id="jPYijmle_x3Z0nmRtkAs-5" style="edgeStyle=orthogonalEdgeStyle;rounded=0;orthogonalLoop=1;jettySize=auto;html=1;exitX=1;exitY=0.5;exitDx=0;exitDy=0;" edge="1" parent="jPYijmle_x3Z0nmRtkAs-1" source="uYDMYwzP-bkC2HoixCUO-24">
          <mxGeometry relative="1" as="geometry">
            <mxPoint x="210" y="120.33333333333337" as="targetPoint" />
          </mxGeometry>
        </mxCell>
        <mxCell id="uYDMYwzP-bkC2HoixCUO-24" value="Sensor DHT11" style="rounded=0;whiteSpace=wrap;html=1;" vertex="1" parent="jPYijmle_x3Z0nmRtkAs-1">
          <mxGeometry x="15" y="100" width="100" height="40" as="geometry" />
        </mxCell>
        <mxCell id="uYDMYwzP-bkC2HoixCUO-23" value="RTC Module" style="rounded=0;whiteSpace=wrap;html=1;" vertex="1" parent="jPYijmle_x3Z0nmRtkAs-1">
          <mxGeometry x="15" y="40" width="100" height="40" as="geometry" />
        </mxCell>
        <mxCell id="jPYijmle_x3Z0nmRtkAs-2" value="Process" style="swimlane;whiteSpace=wrap;html=1;" vertex="1" parent="1">
          <mxGeometry x="240" y="200" width="140" height="160" as="geometry" />
        </mxCell>
        <mxCell id="uYDMYwzP-bkC2HoixCUO-20" value="Esp32" style="rounded=0;whiteSpace=wrap;html=1;" vertex="1" parent="jPYijmle_x3Z0nmRtkAs-2">
          <mxGeometry x="20" y="40" width="100" height="40" as="geometry" />
        </mxCell>
        <mxCell id="jPYijmle_x3Z0nmRtkAs-6" style="edgeStyle=orthogonalEdgeStyle;rounded=0;orthogonalLoop=1;jettySize=auto;html=1;exitX=0.5;exitY=0;exitDx=0;exitDy=0;entryX=0.5;entryY=1;entryDx=0;entryDy=0;" edge="1" parent="jPYijmle_x3Z0nmRtkAs-2" source="uYDMYwzP-bkC2HoixCUO-21" target="uYDMYwzP-bkC2HoixCUO-20">
          <mxGeometry relative="1" as="geometry" />
        </mxCell>
        <mxCell id="uYDMYwzP-bkC2HoixCUO-21" value="Arduino Uno" style="rounded=0;whiteSpace=wrap;html=1;" vertex="1" parent="jPYijmle_x3Z0nmRtkAs-2">
          <mxGeometry x="20" y="100" width="100" height="40" as="geometry" />
        </mxCell>
        <mxCell id="jPYijmle_x3Z0nmRtkAs-3" value="Output" style="swimlane;whiteSpace=wrap;html=1;" vertex="1" parent="1">
          <mxGeometry x="440" y="200" width="130" height="160" as="geometry" />
        </mxCell>
        <mxCell id="uYDMYwzP-bkC2HoixCUO-27" value="LCD" style="rounded=0;whiteSpace=wrap;html=1;" vertex="1" parent="jPYijmle_x3Z0nmRtkAs-3">
          <mxGeometry x="15" y="100" width="100" height="40" as="geometry" />
        </mxCell>
        <mxCell id="uYDMYwzP-bkC2HoixCUO-26" value="Relay" style="rounded=0;whiteSpace=wrap;html=1;" vertex="1" parent="jPYijmle_x3Z0nmRtkAs-3">
          <mxGeometry x="15" y="40" width="100" height="40" as="geometry" />
        </mxCell>
        <mxCell id="jPYijmle_x3Z0nmRtkAs-7" style="edgeStyle=orthogonalEdgeStyle;rounded=0;orthogonalLoop=1;jettySize=auto;html=1;exitX=1;exitY=0.5;exitDx=0;exitDy=0;entryX=0;entryY=0.5;entryDx=0;entryDy=0;" edge="1" parent="1" source="uYDMYwzP-bkC2HoixCUO-21" target="uYDMYwzP-bkC2HoixCUO-27">
          <mxGeometry relative="1" as="geometry" />
        </mxCell>
        <mxCell id="jPYijmle_x3Z0nmRtkAs-8" style="edgeStyle=orthogonalEdgeStyle;rounded=0;orthogonalLoop=1;jettySize=auto;html=1;exitX=1;exitY=0.25;exitDx=0;exitDy=0;entryX=0;entryY=0.5;entryDx=0;entryDy=0;" edge="1" parent="1" source="uYDMYwzP-bkC2HoixCUO-21" target="uYDMYwzP-bkC2HoixCUO-26">
          <mxGeometry relative="1" as="geometry" />
        </mxCell>
        <mxCell id="jPYijmle_x3Z0nmRtkAs-9" style="edgeStyle=orthogonalEdgeStyle;rounded=0;orthogonalLoop=1;jettySize=auto;html=1;exitX=1;exitY=0.5;exitDx=0;exitDy=0;entryX=0;entryY=0.25;entryDx=0;entryDy=0;" edge="1" parent="1" source="uYDMYwzP-bkC2HoixCUO-23" target="uYDMYwzP-bkC2HoixCUO-21">
          <mxGeometry relative="1" as="geometry" />
        </mxCell>
        <mxCell id="jPYijmle_x3Z0nmRtkAs-13" style="edgeStyle=orthogonalEdgeStyle;rounded=0;orthogonalLoop=1;jettySize=auto;html=1;exitX=0.25;exitY=1;exitDx=0;exitDy=0;entryX=0.321;entryY=0.006;entryDx=0;entryDy=0;entryPerimeter=0;" edge="1" parent="1" source="uYDMYwzP-bkC2HoixCUO-13" target="jPYijmle_x3Z0nmRtkAs-2">
          <mxGeometry relative="1" as="geometry" />
        </mxCell>
        <mxCell id="jPYijmle_x3Z0nmRtkAs-14" style="edgeStyle=orthogonalEdgeStyle;rounded=0;orthogonalLoop=1;jettySize=auto;html=1;exitX=0.75;exitY=0;exitDx=0;exitDy=0;entryX=0.852;entryY=1.039;entryDx=0;entryDy=0;entryPerimeter=0;" edge="1" parent="1" source="jPYijmle_x3Z0nmRtkAs-2" target="uYDMYwzP-bkC2HoixCUO-13">
          <mxGeometry relative="1" as="geometry" />
        </mxCell>
        <mxCell id="jPYijmle_x3Z0nmRtkAs-15" style="edgeStyle=orthogonalEdgeStyle;rounded=0;orthogonalLoop=1;jettySize=auto;html=1;exitX=0.75;exitY=0;exitDx=0;exitDy=0;entryX=0.8;entryY=0.8;entryDx=0;entryDy=0;entryPerimeter=0;" edge="1" parent="1" source="uYDMYwzP-bkC2HoixCUO-13" target="uYDMYwzP-bkC2HoixCUO-2">
          <mxGeometry relative="1" as="geometry" />
        </mxCell>
        <mxCell id="jPYijmle_x3Z0nmRtkAs-16" style="edgeStyle=orthogonalEdgeStyle;rounded=0;orthogonalLoop=1;jettySize=auto;html=1;exitX=0.31;exitY=0.8;exitDx=0;exitDy=0;exitPerimeter=0;entryX=0.293;entryY=0.054;entryDx=0;entryDy=0;entryPerimeter=0;" edge="1" parent="1" source="uYDMYwzP-bkC2HoixCUO-2" target="uYDMYwzP-bkC2HoixCUO-13">
          <mxGeometry relative="1" as="geometry" />
        </mxCell>
        <mxCell id="jPYijmle_x3Z0nmRtkAs-18" style="edgeStyle=orthogonalEdgeStyle;rounded=0;orthogonalLoop=1;jettySize=auto;html=1;entryX=0.5;entryY=1;entryDx=0;entryDy=0;" edge="1" parent="1" source="jPYijmle_x3Z0nmRtkAs-17" target="jPYijmle_x3Z0nmRtkAs-2">
          <mxGeometry relative="1" as="geometry" />
        </mxCell>
        <mxCell id="jPYijmle_x3Z0nmRtkAs-17" value="Power Supply 5V" style="rounded=0;whiteSpace=wrap;html=1;" vertex="1" parent="1">
          <mxGeometry x="250" y="420" width="120" height="40" as="geometry" />
        </mxCell>
      </root>
    </mxGraphModel>
  </diagram>
  <diagram id="cLbdI3l63yfdNU8c_2XJ" name="Use Case">
    <mxGraphModel dx="987" dy="382" grid="1" gridSize="10" guides="1" tooltips="1" connect="1" arrows="1" fold="1" page="1" pageScale="1" pageWidth="827" pageHeight="1169" math="0" shadow="0">
      <root>
        <mxCell id="0" />
        <mxCell id="1" parent="0" />
        <mxCell id="-Nd8xwS_vVXYHrJ4tbsL-17" style="rounded=0;orthogonalLoop=1;jettySize=auto;html=1;exitX=1;exitY=0.3333333333333333;exitDx=0;exitDy=0;exitPerimeter=0;entryX=0;entryY=0.5;entryDx=0;entryDy=0;" edge="1" parent="1" source="-Nd8xwS_vVXYHrJ4tbsL-1" target="-Nd8xwS_vVXYHrJ4tbsL-4">
          <mxGeometry relative="1" as="geometry" />
        </mxCell>
        <mxCell id="-Nd8xwS_vVXYHrJ4tbsL-18" style="rounded=0;orthogonalLoop=1;jettySize=auto;html=1;exitX=1;exitY=0.3333333333333333;exitDx=0;exitDy=0;exitPerimeter=0;entryX=0;entryY=0.5;entryDx=0;entryDy=0;" edge="1" parent="1" source="-Nd8xwS_vVXYHrJ4tbsL-1" target="-Nd8xwS_vVXYHrJ4tbsL-10">
          <mxGeometry relative="1" as="geometry" />
        </mxCell>
        <mxCell id="-Nd8xwS_vVXYHrJ4tbsL-19" style="rounded=0;orthogonalLoop=1;jettySize=auto;html=1;exitX=1;exitY=0.3333333333333333;exitDx=0;exitDy=0;exitPerimeter=0;entryX=0;entryY=0.5;entryDx=0;entryDy=0;" edge="1" parent="1" source="-Nd8xwS_vVXYHrJ4tbsL-1" target="-Nd8xwS_vVXYHrJ4tbsL-11">
          <mxGeometry relative="1" as="geometry" />
        </mxCell>
        <mxCell id="-Nd8xwS_vVXYHrJ4tbsL-20" style="rounded=0;orthogonalLoop=1;jettySize=auto;html=1;exitX=1;exitY=0.3333333333333333;exitDx=0;exitDy=0;exitPerimeter=0;entryX=0;entryY=0.5;entryDx=0;entryDy=0;" edge="1" parent="1" source="-Nd8xwS_vVXYHrJ4tbsL-1" target="-Nd8xwS_vVXYHrJ4tbsL-12">
          <mxGeometry relative="1" as="geometry" />
        </mxCell>
        <mxCell id="-Nd8xwS_vVXYHrJ4tbsL-32" style="rounded=0;orthogonalLoop=1;jettySize=auto;html=1;exitX=1;exitY=0.3333333333333333;exitDx=0;exitDy=0;exitPerimeter=0;entryX=0;entryY=0.5;entryDx=0;entryDy=0;" edge="1" parent="1" source="-Nd8xwS_vVXYHrJ4tbsL-1" target="-Nd8xwS_vVXYHrJ4tbsL-15">
          <mxGeometry relative="1" as="geometry" />
        </mxCell>
        <mxCell id="-Nd8xwS_vVXYHrJ4tbsL-1" value="Actor" style="shape=umlActor;verticalLabelPosition=bottom;verticalAlign=top;html=1;outlineConnect=0;" vertex="1" parent="1">
          <mxGeometry x="80" y="350" width="30" height="60" as="geometry" />
        </mxCell>
        <mxCell id="-Nd8xwS_vVXYHrJ4tbsL-4" value="Atur Kelembaban" style="ellipse;whiteSpace=wrap;html=1;" vertex="1" parent="1">
          <mxGeometry x="210" y="180" width="75" height="50" as="geometry" />
        </mxCell>
        <mxCell id="-Nd8xwS_vVXYHrJ4tbsL-10" value="Atur Temperatur" style="ellipse;whiteSpace=wrap;html=1;" vertex="1" parent="1">
          <mxGeometry x="210" y="250" width="75" height="50" as="geometry" />
        </mxCell>
        <mxCell id="-Nd8xwS_vVXYHrJ4tbsL-25" style="rounded=0;orthogonalLoop=1;jettySize=auto;html=1;exitX=1;exitY=0.5;exitDx=0;exitDy=0;" edge="1" parent="1" source="-Nd8xwS_vVXYHrJ4tbsL-11" target="-Nd8xwS_vVXYHrJ4tbsL-24">
          <mxGeometry relative="1" as="geometry" />
        </mxCell>
        <mxCell id="-Nd8xwS_vVXYHrJ4tbsL-38" value="&amp;lt;&amp;lt;include&amp;gt;&amp;gt;" style="edgeLabel;html=1;align=center;verticalAlign=middle;resizable=0;points=[];" vertex="1" connectable="0" parent="-Nd8xwS_vVXYHrJ4tbsL-25">
          <mxGeometry x="-0.0627" y="1" relative="1" as="geometry">
            <mxPoint as="offset" />
          </mxGeometry>
        </mxCell>
        <mxCell id="-Nd8xwS_vVXYHrJ4tbsL-27" style="rounded=0;orthogonalLoop=1;jettySize=auto;html=1;exitX=1;exitY=0.5;exitDx=0;exitDy=0;" edge="1" parent="1" source="-Nd8xwS_vVXYHrJ4tbsL-11" target="-Nd8xwS_vVXYHrJ4tbsL-26">
          <mxGeometry relative="1" as="geometry" />
        </mxCell>
        <mxCell id="-Nd8xwS_vVXYHrJ4tbsL-39" value="&amp;lt;&amp;lt;include&amp;gt;&amp;gt;" style="edgeLabel;html=1;align=center;verticalAlign=middle;resizable=0;points=[];" vertex="1" connectable="0" parent="-Nd8xwS_vVXYHrJ4tbsL-27">
          <mxGeometry x="-0.1148" y="-1" relative="1" as="geometry">
            <mxPoint as="offset" />
          </mxGeometry>
        </mxCell>
        <mxCell id="-Nd8xwS_vVXYHrJ4tbsL-11" value="Lihat Sensor" style="ellipse;whiteSpace=wrap;html=1;" vertex="1" parent="1">
          <mxGeometry x="210" y="320" width="75" height="50" as="geometry" />
        </mxCell>
        <mxCell id="-Nd8xwS_vVXYHrJ4tbsL-12" value="Ganti Mode" style="ellipse;whiteSpace=wrap;html=1;" vertex="1" parent="1">
          <mxGeometry x="210" y="390" width="75" height="50" as="geometry" />
        </mxCell>
        <mxCell id="-Nd8xwS_vVXYHrJ4tbsL-34" style="rounded=0;orthogonalLoop=1;jettySize=auto;html=1;exitX=1;exitY=0.5;exitDx=0;exitDy=0;entryX=0;entryY=0.5;entryDx=0;entryDy=0;" edge="1" parent="1" source="-Nd8xwS_vVXYHrJ4tbsL-15" target="-Nd8xwS_vVXYHrJ4tbsL-33">
          <mxGeometry relative="1" as="geometry" />
        </mxCell>
        <mxCell id="-Nd8xwS_vVXYHrJ4tbsL-41" value="&amp;lt;&amp;lt;include&amp;gt;&amp;gt;" style="edgeLabel;html=1;align=center;verticalAlign=middle;resizable=0;points=[];" vertex="1" connectable="0" parent="-Nd8xwS_vVXYHrJ4tbsL-34">
          <mxGeometry x="0.0784" y="2" relative="1" as="geometry">
            <mxPoint as="offset" />
          </mxGeometry>
        </mxCell>
        <mxCell id="-Nd8xwS_vVXYHrJ4tbsL-15" value="Atur Jadwal" style="ellipse;whiteSpace=wrap;html=1;" vertex="1" parent="1">
          <mxGeometry x="210" y="480" width="75" height="50" as="geometry" />
        </mxCell>
        <mxCell id="-Nd8xwS_vVXYHrJ4tbsL-24" value="Melihat Kelembaban" style="ellipse;whiteSpace=wrap;html=1;" vertex="1" parent="1">
          <mxGeometry x="400" y="240" width="75" height="50" as="geometry" />
        </mxCell>
        <mxCell id="-Nd8xwS_vVXYHrJ4tbsL-26" value="Melihat Temperatur" style="ellipse;whiteSpace=wrap;html=1;" vertex="1" parent="1">
          <mxGeometry x="414" y="330" width="75" height="50" as="geometry" />
        </mxCell>
        <mxCell id="-Nd8xwS_vVXYHrJ4tbsL-28" style="rounded=0;orthogonalLoop=1;jettySize=auto;html=1;exitX=1;exitY=0.5;exitDx=0;exitDy=0;" edge="1" parent="1" target="-Nd8xwS_vVXYHrJ4tbsL-29" source="-Nd8xwS_vVXYHrJ4tbsL-12">
          <mxGeometry relative="1" as="geometry">
            <mxPoint x="260" y="400" as="sourcePoint" />
          </mxGeometry>
        </mxCell>
        <mxCell id="-Nd8xwS_vVXYHrJ4tbsL-43" value="&amp;lt;&amp;lt;extend&amp;gt;&amp;gt;" style="edgeLabel;html=1;align=center;verticalAlign=middle;resizable=0;points=[];" vertex="1" connectable="0" parent="-Nd8xwS_vVXYHrJ4tbsL-28">
          <mxGeometry x="-0.2707" relative="1" as="geometry">
            <mxPoint as="offset" />
          </mxGeometry>
        </mxCell>
        <mxCell id="-Nd8xwS_vVXYHrJ4tbsL-29" value="Kontrol&lt;div&gt;Kipas Manual&lt;/div&gt;" style="ellipse;whiteSpace=wrap;html=1;" vertex="1" parent="1">
          <mxGeometry x="400" y="400" width="110" height="50" as="geometry" />
        </mxCell>
        <mxCell id="-Nd8xwS_vVXYHrJ4tbsL-30" style="rounded=0;orthogonalLoop=1;jettySize=auto;html=1;exitX=1;exitY=0.5;exitDx=0;exitDy=0;" edge="1" parent="1" target="-Nd8xwS_vVXYHrJ4tbsL-31" source="-Nd8xwS_vVXYHrJ4tbsL-15">
          <mxGeometry relative="1" as="geometry">
            <mxPoint x="342.5" y="570" as="sourcePoint" />
          </mxGeometry>
        </mxCell>
        <mxCell id="-Nd8xwS_vVXYHrJ4tbsL-40" value="&amp;lt;&amp;lt;include&amp;gt;&amp;gt;" style="edgeLabel;html=1;align=center;verticalAlign=middle;resizable=0;points=[];" vertex="1" connectable="0" parent="-Nd8xwS_vVXYHrJ4tbsL-30">
          <mxGeometry x="-0.0934" y="-1" relative="1" as="geometry">
            <mxPoint as="offset" />
          </mxGeometry>
        </mxCell>
        <mxCell id="-Nd8xwS_vVXYHrJ4tbsL-31" value="Atur Waktu Mulai" style="ellipse;whiteSpace=wrap;html=1;" vertex="1" parent="1">
          <mxGeometry x="404" y="470" width="75" height="50" as="geometry" />
        </mxCell>
        <mxCell id="-Nd8xwS_vVXYHrJ4tbsL-33" value="Atur Waktu Selesai" style="ellipse;whiteSpace=wrap;html=1;" vertex="1" parent="1">
          <mxGeometry x="404" y="535" width="75" height="50" as="geometry" />
        </mxCell>
      </root>
    </mxGraphModel>
  </diagram>
  <diagram id="LLjK3HI2AxOax1OaiWPH" name="Squence">
    <mxGraphModel dx="1161" dy="449" grid="1" gridSize="10" guides="1" tooltips="1" connect="1" arrows="1" fold="1" page="1" pageScale="1" pageWidth="827" pageHeight="1169" math="0" shadow="0">
      <root>
        <mxCell id="0" />
        <mxCell id="1" parent="0" />
        <mxCell id="ba0MHqbBERlm94sZeneO-2" value="" style="shape=umlLifeline;perimeter=lifelinePerimeter;whiteSpace=wrap;html=1;container=1;dropTarget=0;collapsible=0;recursiveResize=0;outlineConnect=0;portConstraint=eastwest;newEdgeStyle={&quot;curved&quot;:0,&quot;rounded&quot;:0};participant=umlActor;" vertex="1" parent="1">
          <mxGeometry x="140" y="20" width="20" height="300" as="geometry" />
        </mxCell>
        <mxCell id="ba0MHqbBERlm94sZeneO-3" value="" style="html=1;points=[[0,0,0,0,5],[0,1,0,0,-5],[1,0,0,0,5],[1,1,0,0,-5]];perimeter=orthogonalPerimeter;outlineConnect=0;targetShapes=umlLifeline;portConstraint=eastwest;newEdgeStyle={&quot;curved&quot;:0,&quot;rounded&quot;:0};" vertex="1" parent="ba0MHqbBERlm94sZeneO-2">
          <mxGeometry x="5" y="80" width="10" height="80" as="geometry" />
        </mxCell>
        <mxCell id="ba0MHqbBERlm94sZeneO-4" value="callback" style="html=1;verticalAlign=bottom;endArrow=block;curved=0;rounded=0;entryX=1;entryY=0;entryDx=0;entryDy=5;" edge="1" target="ba0MHqbBERlm94sZeneO-3" parent="ba0MHqbBERlm94sZeneO-2">
          <mxGeometry relative="1" as="geometry">
            <mxPoint x="85" y="85" as="sourcePoint" />
          </mxGeometry>
        </mxCell>
        <mxCell id="ba0MHqbBERlm94sZeneO-5" value="return" style="html=1;verticalAlign=bottom;endArrow=open;dashed=1;endSize=8;curved=0;rounded=0;exitX=1;exitY=1;exitDx=0;exitDy=-5;" edge="1" source="ba0MHqbBERlm94sZeneO-3" parent="ba0MHqbBERlm94sZeneO-2">
          <mxGeometry relative="1" as="geometry">
            <mxPoint x="85" y="155" as="targetPoint" />
          </mxGeometry>
        </mxCell>
        <mxCell id="ba0MHqbBERlm94sZeneO-6" value="Blynk Server" style="shape=umlLifeline;perimeter=lifelinePerimeter;whiteSpace=wrap;html=1;container=1;dropTarget=0;collapsible=0;recursiveResize=0;outlineConnect=0;portConstraint=eastwest;newEdgeStyle={&quot;curved&quot;:0,&quot;rounded&quot;:0};" vertex="1" parent="1">
          <mxGeometry x="270" y="20" width="100" height="300" as="geometry" />
        </mxCell>
        <mxCell id="ba0MHqbBERlm94sZeneO-13" value="" style="html=1;points=[[0,0,0,0,5],[0,1,0,0,-5],[1,0,0,0,5],[1,1,0,0,-5]];perimeter=orthogonalPerimeter;outlineConnect=0;targetShapes=umlLifeline;portConstraint=eastwest;newEdgeStyle={&quot;curved&quot;:0,&quot;rounded&quot;:0};" vertex="1" parent="ba0MHqbBERlm94sZeneO-6">
          <mxGeometry x="45" y="80" width="10" height="80" as="geometry" />
        </mxCell>
        <mxCell id="ba0MHqbBERlm94sZeneO-14" value="callback" style="html=1;verticalAlign=bottom;endArrow=block;curved=0;rounded=0;entryX=1;entryY=0;entryDx=0;entryDy=5;" edge="1" target="ba0MHqbBERlm94sZeneO-13" parent="ba0MHqbBERlm94sZeneO-6">
          <mxGeometry relative="1" as="geometry">
            <mxPoint x="125" y="85" as="sourcePoint" />
          </mxGeometry>
        </mxCell>
        <mxCell id="ba0MHqbBERlm94sZeneO-15" value="return" style="html=1;verticalAlign=bottom;endArrow=open;dashed=1;endSize=8;curved=0;rounded=0;exitX=1;exitY=1;exitDx=0;exitDy=-5;" edge="1" source="ba0MHqbBERlm94sZeneO-13" parent="ba0MHqbBERlm94sZeneO-6">
          <mxGeometry relative="1" as="geometry">
            <mxPoint x="125" y="155" as="targetPoint" />
          </mxGeometry>
        </mxCell>
        <mxCell id="ba0MHqbBERlm94sZeneO-7" value=":ESP32" style="shape=umlLifeline;perimeter=lifelinePerimeter;whiteSpace=wrap;html=1;container=1;dropTarget=0;collapsible=0;recursiveResize=0;outlineConnect=0;portConstraint=eastwest;newEdgeStyle={&quot;curved&quot;:0,&quot;rounded&quot;:0};" vertex="1" parent="1">
          <mxGeometry x="430" y="20" width="100" height="300" as="geometry" />
        </mxCell>
        <mxCell id="ba0MHqbBERlm94sZeneO-16" value="" style="html=1;points=[[0,0,0,0,5],[0,1,0,0,-5],[1,0,0,0,5],[1,1,0,0,-5]];perimeter=orthogonalPerimeter;outlineConnect=0;targetShapes=umlLifeline;portConstraint=eastwest;newEdgeStyle={&quot;curved&quot;:0,&quot;rounded&quot;:0};" vertex="1" parent="ba0MHqbBERlm94sZeneO-7">
          <mxGeometry x="45" y="70" width="10" height="80" as="geometry" />
        </mxCell>
        <mxCell id="ba0MHqbBERlm94sZeneO-17" value="callback" style="html=1;verticalAlign=bottom;endArrow=block;curved=0;rounded=0;entryX=1;entryY=0;entryDx=0;entryDy=5;" edge="1" target="ba0MHqbBERlm94sZeneO-16" parent="ba0MHqbBERlm94sZeneO-7">
          <mxGeometry relative="1" as="geometry">
            <mxPoint x="125" y="75" as="sourcePoint" />
          </mxGeometry>
        </mxCell>
        <mxCell id="ba0MHqbBERlm94sZeneO-18" value="return" style="html=1;verticalAlign=bottom;endArrow=open;dashed=1;endSize=8;curved=0;rounded=0;exitX=1;exitY=1;exitDx=0;exitDy=-5;" edge="1" source="ba0MHqbBERlm94sZeneO-16" parent="ba0MHqbBERlm94sZeneO-7">
          <mxGeometry relative="1" as="geometry">
            <mxPoint x="125" y="145" as="targetPoint" />
          </mxGeometry>
        </mxCell>
        <mxCell id="ba0MHqbBERlm94sZeneO-8" value=":ARDUINO UNO" style="shape=umlLifeline;perimeter=lifelinePerimeter;whiteSpace=wrap;html=1;container=1;dropTarget=0;collapsible=0;recursiveResize=0;outlineConnect=0;portConstraint=eastwest;newEdgeStyle={&quot;curved&quot;:0,&quot;rounded&quot;:0};" vertex="1" parent="1">
          <mxGeometry x="590" y="20" width="100" height="300" as="geometry" />
        </mxCell>
        <mxCell id="ba0MHqbBERlm94sZeneO-20" value="" style="html=1;points=[[0,0,0,0,5],[0,1,0,0,-5],[1,0,0,0,5],[1,1,0,0,-5]];perimeter=orthogonalPerimeter;outlineConnect=0;targetShapes=umlLifeline;portConstraint=eastwest;newEdgeStyle={&quot;curved&quot;:0,&quot;rounded&quot;:0};" vertex="1" parent="ba0MHqbBERlm94sZeneO-8">
          <mxGeometry x="45" y="70" width="10" height="80" as="geometry" />
        </mxCell>
        <mxCell id="ba0MHqbBERlm94sZeneO-23" value="" style="html=1;points=[[0,0,0,0,5],[0,1,0,0,-5],[1,0,0,0,5],[1,1,0,0,-5]];perimeter=orthogonalPerimeter;outlineConnect=0;targetShapes=umlLifeline;portConstraint=eastwest;newEdgeStyle={&quot;curved&quot;:0,&quot;rounded&quot;:0};" vertex="1" parent="ba0MHqbBERlm94sZeneO-8">
          <mxGeometry x="45" y="180" width="10" height="100" as="geometry" />
        </mxCell>
        <mxCell id="ba0MHqbBERlm94sZeneO-24" value="self call" style="html=1;align=left;spacingLeft=2;endArrow=block;rounded=0;edgeStyle=orthogonalEdgeStyle;curved=0;rounded=0;" edge="1" target="ba0MHqbBERlm94sZeneO-23" parent="ba0MHqbBERlm94sZeneO-8" source="ba0MHqbBERlm94sZeneO-20">
          <mxGeometry relative="1" as="geometry">
            <mxPoint x="50" y="190" as="sourcePoint" />
            <Array as="points">
              <mxPoint x="80" y="140" />
              <mxPoint x="80" y="190" />
            </Array>
          </mxGeometry>
        </mxCell>
        <mxCell id="ba0MHqbBERlm94sZeneO-9" value="RELAY" style="shape=umlLifeline;perimeter=lifelinePerimeter;whiteSpace=wrap;html=1;container=1;dropTarget=0;collapsible=0;recursiveResize=0;outlineConnect=0;portConstraint=eastwest;newEdgeStyle={&quot;curved&quot;:0,&quot;rounded&quot;:0};" vertex="1" parent="1">
          <mxGeometry x="730" y="20" width="100" height="300" as="geometry" />
        </mxCell>
        <mxCell id="ba0MHqbBERlm94sZeneO-25" value="" style="html=1;points=[[0,0,0,0,5],[0,1,0,0,-5],[1,0,0,0,5],[1,1,0,0,-5]];perimeter=orthogonalPerimeter;outlineConnect=0;targetShapes=umlLifeline;portConstraint=eastwest;newEdgeStyle={&quot;curved&quot;:0,&quot;rounded&quot;:0};" vertex="1" parent="ba0MHqbBERlm94sZeneO-9">
          <mxGeometry x="45" y="150" width="10" height="80" as="geometry" />
        </mxCell>
        <mxCell id="ba0MHqbBERlm94sZeneO-19" value="LCD" style="shape=umlLifeline;perimeter=lifelinePerimeter;whiteSpace=wrap;html=1;container=1;dropTarget=0;collapsible=0;recursiveResize=0;outlineConnect=0;portConstraint=eastwest;newEdgeStyle={&quot;curved&quot;:0,&quot;rounded&quot;:0};" vertex="1" parent="1">
          <mxGeometry x="890" y="20" width="100" height="300" as="geometry" />
        </mxCell>
        <mxCell id="ba0MHqbBERlm94sZeneO-26" value="" style="html=1;points=[[0,0,0,0,5],[0,1,0,0,-5],[1,0,0,0,5],[1,1,0,0,-5]];perimeter=orthogonalPerimeter;outlineConnect=0;targetShapes=umlLifeline;portConstraint=eastwest;newEdgeStyle={&quot;curved&quot;:0,&quot;rounded&quot;:0};" vertex="1" parent="ba0MHqbBERlm94sZeneO-19">
          <mxGeometry x="45" y="210" width="10" height="80" as="geometry" />
        </mxCell>
      </root>
    </mxGraphModel>
  </diagram>
</mxfile>
